# xmcd
#
# Track frame offsets: 
#        150
#        18183
#        41671
#        71835
#        101056
#        130161
#        152388
#        178744
#        197473
#        216451
#        235320
#        260066
#        291219
#        307662
#
# Disc length: 4579 seconds
#
# Revision: 8
# Processed by: cddbd v1.5.2PL0 Copyright (c) Steve Scherf et al.
# Submitted via: ExactAudioCopy v1.3
#
DISCID=c611e10e
DTITLE=Marcia Ball - Live! Down The Road
DYEAR=2005
DGENRE=Blues
TTITLE0=Big Shot
TTITLE1=The Right Tool For The Job
TTITLE2=Just Kiss Me
TTITLE3=That's Enough Of That Stuff
TTITLE4=Louella
TTITLE5=Every Day Will Be Like A Holiday
TTITLE6=La Ti Da
TTITLE7=It Hurts To Be In Love (with Angela Strehli)
TTITLE8=Down The Road
TTITLE9=No Ordinary Woman
TTITLE10=Crawfishin'
TTITLE11=Louisiana 1927
TTITLE12=Count The Days
TTITLE13=Let Me Play With Your Poodle
EXTD=MARCIA BALL - PIANO and VOCALS, DON BENNETT - BASS, PAT BOYACK - GU
EXTD=ITAR, BRAD ANDREW - TENOR SAXOPHONE, COREY KELLER - DRUMS, RED YO
EXTD=UNG - B-3, ANGELA STREHLI - GUEST VOCALS, MARK KAZANOFF - BARITON
EXTD=E SAXOPHONE, AL GOMEZ - TRUMPET. Recorded in the Big Room at the 
EXTD=Sierra Nevada Brewing Company in Chico, CA. Recorded by Dale Pric
EXTD=e, ProSound Audio, Chico, CA. Recording Assistant: Kyle Porter. B
EXTD=ig Room Sound Engineer: Sloan Tash. Front of House Mix: Johnny Me
EXTD=dina. Mixed at ASM, Austin, TX by Chet Himes. Mix Assistant: Eli 
EXTD=Smith. Mastered by Jerry Tubb, Terra Nova Digital Audio, Austin, 
EXTD=TX. ALLIGATOR ALCD 4903.
EXTT0=
EXTT1=
EXTT2=
EXTT3=
EXTT4=
EXTT5=
EXTT6=
EXTT7=
EXTT8=
EXTT9=
EXTT10=
EXTT11=
EXTT12=
EXTT13=
PLAYORDER=
